HIERARCHY
ROOT hip
{
	OFFSET 0.000000 0.000000 0.000000 
	CHANNELS 6 Xposition Yposition Zposition Xrotation Zrotation Yrotation
	JOINT abdomen
	{
		OFFSET 0.000000 3.402643 0.000000 
		CHANNELS 3 Xrotation Zrotation Yrotation
		JOINT chest
		{
			OFFSET 0.000000 8.438565 -0.680529 
			CHANNELS 3 Xrotation Zrotation Yrotation
			JOINT neck
			{
				OFFSET 0.000000 10.207942 -0.272212 
				CHANNELS 3 Xrotation Zrotation Yrotation
				JOINT head
				{
					OFFSET 0.000000 3.130431 0.000000 
					CHANNELS 3 Xrotation Zrotation Yrotation
					End Site
					{
						OFFSET 0.000000 3.130435 0.000000 
					}
				}
			}
			JOINT lCollar
			{
				OFFSET 3.470700 6.669187 -0.816635 
				CHANNELS 3 Yrotation Zrotation Xrotation
				JOINT lShldr
				{
					OFFSET 3.198488 0.000000 0.000000 
					CHANNELS 3 Zrotation Yrotation Xrotation
					JOINT lForeArm
					{
						OFFSET 10.139888 0.000000 0.000000 
						CHANNELS 3 Yrotation Zrotation Xrotation
						JOINT lHand
						{
							OFFSET 8.370511 0.000000 0.000000 
							CHANNELS 3 Zrotation Yrotation Xrotation
							End Site
							{
								OFFSET 4.083176 0.000000 0.000000 
							}
						}
					}
				}
			}
			JOINT rCollar
			{
				OFFSET -3.470700 6.669187 -0.816635 
				CHANNELS 3 Yrotation Zrotation Xrotation
				JOINT rShldr
				{
					OFFSET -3.198488 0.000000 0.000000 
					CHANNELS 3 Zrotation Yrotation Xrotation
					JOINT rForeArm
					{
						OFFSET -10.139888 0.000000 0.000000 
						CHANNELS 3 Yrotation Zrotation Xrotation
						JOINT rHand
						{
							OFFSET -8.370511 0.000000 0.000000 
							CHANNELS 3 Zrotation Yrotation Xrotation
							End Site
							{
								OFFSET -4.083176 0.000000 0.000000 
							}
						}
					}
				}
			}
		}
	}
	JOINT lThigh
	{
		OFFSET 5.308129 -1.633274 1.361059 
		CHANNELS 3 Xrotation Zrotation Yrotation
		JOINT lShin
		{
			OFFSET -2.041588 -20.007561 0.000000 
			CHANNELS 3 Xrotation Zrotation Yrotation
			JOINT lFoot
			{
				OFFSET 0.000000 -19.190928 -1.224953 
				CHANNELS 3 Xrotation Yrotation Zrotation
				End Site
				{
					OFFSET 0.000000 -2.449906 4.627600 
				}
			}
		}
	}
	JOINT rThigh
	{
		OFFSET -5.308129 -1.633274 1.361059 
		CHANNELS 3 Xrotation Zrotation Yrotation
		JOINT rShin
		{
			OFFSET 2.041588 -20.007561 0.000000 
			CHANNELS 3 Xrotation Zrotation Yrotation
			JOINT rFoot
			{
				OFFSET 0.000000 -19.190928 -1.224953 
				CHANNELS 3 Xrotation Yrotation Zrotation
				End Site
				{
					OFFSET 0.000000 -2.449906 4.627600 
				}
			}
		}
	}
}
MOTION
Frames: 18
Frame Time: 0.033333
-2.868937 41.957684 71.640327 -5.791016 58.750004 -95.528763 53.303020 -7.485191 -0.434545 -24.267578 17.187500 1.269532 51.063168 8.107644 2.471410 -88.818359 -8.203125 -8.722097 2.000000 -2.000000 0.000000 -63.105469 11.601563 -66.455078 -76.581657 -0.632984 -2.688200 -56.704845 36.951672 -59.000874 -2.000000 2.000000 0.000000 52.558594 -9.609375 -80.371094 86.902809 -0.100203 -3.033950 7.268565 -36.537567 -1.610086 -88.530914 41.836788 30.759577 46.594215 -3.568229 -3.786051 1.385834 -4.395280 -13.745036 -95.810738 -38.535595 -29.554768 56.604206 2.643832 4.053209 -7.261778 2.366525 2.817610 
-2.900620 41.815884 71.378113 -5.800781 58.925785 -95.518982 53.275024 -7.565180 -0.276818 -24.296877 16.660158 1.044921 51.063168 8.107644 2.471410 -89.169922 -8.124998 -9.013671 2.000000 -2.000000 0.000000 -63.281250 12.431641 -67.011719 -76.757446 -0.623234 -2.688767 -56.861065 36.431267 -58.767509 -2.000000 2.000000 0.000000 52.011719 -8.710938 -82.569839 86.207809 0.101148 -2.963635 6.843975 -37.617954 -1.063374 -88.740234 42.109428 30.275831 46.594044 -3.571185 -3.787236 1.761738 -4.647258 -13.855078 -96.109428 -38.831139 -29.833494 57.485153 2.578009 4.096601 -7.700976 2.468802 1.999428 
-2.924366 41.681950 71.119385 -6.181640 59.091797 -95.821701 53.423576 -7.663435 -0.125941 -24.501955 16.142578 0.771485 51.063168 8.107644 2.471410 -89.531250 -8.193358 -9.218751 2.000000 -2.000000 0.000000 -63.691406 13.027344 -68.249748 -76.757446 -0.623234 -2.688767 -56.908230 35.954205 -59.073563 -2.000000 2.000000 0.000000 51.445313 -8.095703 -84.376373 85.856239 0.101148 -2.963635 6.290822 -38.668213 -0.270943 -89.080002 42.242027 29.848244 46.552502 -3.421721 -3.751626 1.981785 -4.928582 -14.638461 -96.441833 -38.821793 -30.662277 58.482281 2.001744 3.952802 -9.078666 3.004856 1.862494 
-2.940461 41.524387 70.856010 -6.181640 59.091797 -95.821701 53.765854 -7.679429 -0.111080 -24.697266 15.800782 0.683594 51.063168 8.107644 2.471410 -90.117188 -8.349608 -9.267578 2.000000 -2.000000 0.000000 -64.257813 13.632812 -69.040665 -76.933228 -0.613485 -2.689335 -56.934891 35.241264 -58.883812 -2.000000 2.000000 0.000000 50.927734 -8.115234 -83.868568 86.014053 -0.286271 -2.692747 6.267429 -39.752064 0.082694 -89.459167 42.746490 29.456871 46.771824 -3.538973 -3.797961 2.108822 -4.986506 -14.884874 -96.941170 -39.195271 -30.417149 59.403454 2.431555 4.175450 -9.441483 2.528571 1.324082 
-2.964138 41.398338 70.605232 -6.201172 59.258278 -95.646027 53.886665 -7.663561 0.209064 -24.882813 15.634766 0.625000 51.063168 8.107644 2.471410 -90.527344 -8.535156 -9.522933 2.000000 -2.000000 0.000000 -64.648438 14.218749 -69.782761 -77.107979 -0.523479 -2.655458 -56.802540 34.970287 -58.605961 -2.000000 2.000000 0.000000 49.921875 -8.740234 -82.832031 86.207809 0.101148 -2.963635 6.305565 -41.041500 0.156454 -89.998436 42.760666 28.677898 46.771824 -3.538931 -3.797943 2.263306 -5.280241 -15.427223 -97.235191 -39.285057 -30.660316 60.275341 2.353374 4.180277 -10.419392 2.361554 0.934273 
-2.978416 41.295925 70.337814 -5.888671 59.453129 -95.177139 54.238667 -7.679552 0.222622 -25.253908 15.292970 0.322266 51.063168 8.107644 2.471410 -91.113281 -8.691404 -9.570313 2.000000 -2.000000 0.000000 -65.117188 15.156250 -70.495499 -77.091743 -0.442522 -2.777584 -57.010445 34.501503 -59.126141 -2.000000 2.000000 0.000000 49.042969 -9.707031 -80.566406 86.551247 -0.080704 -3.032822 6.764626 -41.894890 -0.411633 -90.203224 43.014061 28.387314 46.771767 -3.546040 -3.791173 2.613973 -5.609547 -15.785821 -97.722153 -39.419292 -30.796534 61.331520 2.275204 4.226841 -11.308793 2.461540 0.735165 
-2.983103 41.154114 70.075134 -5.947266 59.619144 -95.011108 54.398483 -7.595100 0.359887 -25.458986 15.117188 0.253907 51.063168 8.107644 2.471410 -91.552734 -8.994140 -9.521484 2.000000 -2.000000 0.000000 -65.458984 16.015627 -70.973869 -77.091743 -0.442522 -2.777584 -57.269463 34.495251 -59.217262 -2.000000 2.000000 0.000000 48.671875 -9.443359 -80.773087 86.550972 -0.081268 -3.023077 6.942168 -42.355404 -0.068019 -90.917618 43.446629 27.863680 46.908497 -3.363076 -3.746352 2.801830 -5.970137 -16.446819 -98.190880 -39.516689 -31.439232 62.167152 1.708963 4.080351 -12.133063 2.833065 0.671729 
-2.985233 41.020199 69.802391 -6.005860 59.970707 -95.009766 54.723331 -7.499231 0.522264 -25.820313 14.960938 0.156251 51.063168 8.107644 2.471410 -92.158203 -9.267577 -9.599609 2.000000 -2.000000 0.000000 -65.771484 16.689453 -71.178833 -77.091743 -0.442522 -2.777584 -57.644394 34.602646 -59.382137 -2.000000 2.000000 0.000000 48.281250 -9.189453 -80.441017 86.559647 0.082214 -2.974508 7.526237 -42.741486 -0.210705 -91.472656 43.668327 27.085657 46.956142 -3.665796 -3.710137 3.006707 -5.988986 -16.626877 -98.485161 -39.821926 -31.738022 63.228626 1.767447 4.238334 -12.901791 2.617810 0.419296 
-2.986610 40.878384 69.524323 -5.683593 60.166016 -94.532547 55.058815 -7.421627 0.676506 -26.015625 14.619141 0.078125 51.063168 8.107644 2.471410 -92.792969 -9.531250 -9.521485 2.000000 -2.000000 0.000000 -65.947266 17.343750 -71.679688 -77.109291 -0.604301 -2.699647 -58.045727 34.740845 -59.634274 -2.000000 2.000000 0.000000 48.388672 -9.345702 -80.138306 86.735428 0.072465 -2.975071 8.110090 -43.088882 -0.333890 -91.979027 43.831795 26.870678 47.085453 -3.509379 -3.849598 3.179702 -6.368921 -17.025257 -99.039551 -40.100292 -32.036396 64.257683 1.503799 4.134959 -13.788939 2.639114 0.179253 
-2.972250 40.705063 69.241730 -5.693359 60.341797 -94.356750 55.410748 -7.437617 0.691368 -26.376955 14.453126 -0.195313 51.063168 8.107644 2.471410 -93.408203 -9.775389 -9.609376 2.000000 -2.000000 0.000000 -66.103523 18.027344 -72.031250 -77.285072 -0.604301 -2.699647 -58.045727 34.740845 -59.634274 -2.000000 2.000000 0.000000 47.695316 -9.365235 -79.249634 86.550972 -0.091017 -3.023641 8.585851 -43.269489 -0.224488 -92.734283 44.120934 25.923952 47.280739 -3.685122 -3.947829 3.619339 -6.245234 -17.314497 -99.666931 -40.173630 -31.829355 65.329254 1.563332 4.285116 -14.488733 2.660277 -0.351403 
-2.958941 40.508114 68.962296 -5.380859 60.517578 -93.887985 55.912518 -7.375998 0.861726 -26.572266 14.277344 -0.261264 51.063168 8.107644 2.471410 -93.867188 -10.068358 -9.542723 2.000000 -2.000000 0.000000 -66.494141 18.339846 -72.565292 -77.285072 -0.604301 -2.699647 -57.513142 34.439312 -59.474922 -2.000000 2.000000 0.000000 47.021488 -9.179688 -78.566010 86.550972 -0.091017 -3.023641 9.447678 -43.474167 -0.175789 -93.495033 44.382977 25.140186 47.490536 -3.821919 -3.683679 3.582026 -6.834013 -17.690723 -100.017303 -40.405312 -32.408710 66.376923 1.337702 4.189715 -15.571262 2.522422 -0.301593 
-2.949661 40.326920 68.675186 -5.410156 60.703129 -93.546165 56.247917 -7.294950 1.008057 -26.943361 13.935549 -0.361328 51.063168 8.107644 2.471410 -94.482422 -10.312499 -9.599608 2.000000 -2.000000 0.000000 -66.318359 18.750002 -72.711708 -77.443314 -0.423023 -2.778715 -57.244537 34.445042 -59.227753 -2.000000 2.000000 0.000000 46.181641 -9.091797 -77.032791 86.550972 -0.091017 -3.023641 9.876174 -43.674446 -0.283314 -94.205452 44.603458 24.951857 47.822254 -3.470517 -3.882614 3.788444 -7.146338 -18.201029 -100.672478 -40.680649 -32.132015 67.468849 1.739027 4.445245 -16.362526 1.868984 -0.601055 
-2.927073 40.129959 68.390060 -5.097656 61.074219 -93.077393 56.582638 -7.215044 1.183990 -27.314455 13.769532 -0.458984 51.063168 8.107644 2.471410 -95.117188 -10.537108 -9.503740 2.000000 -2.000000 0.000000 -66.425781 19.238283 -73.203125 -77.460861 -0.594552 -2.700214 -58.045727 34.740845 -59.634274 -2.000000 2.000000 0.000000 45.029297 -9.345702 -74.785156 86.559647 0.082214 -2.974508 9.535959 -43.650970 0.694304 -94.868248 44.914078 24.182903 47.975227 -3.626670 -3.825445 4.011178 -7.461206 -18.186411 -101.376266 -40.896976 -32.058716 68.690735 1.640448 4.453613 -17.222233 1.880555 -0.946909 
-2.909485 39.917255 68.112564 -4.765625 61.250000 -92.773438 56.898693 -7.149976 1.345151 -27.500002 13.603517 -0.683594 51.063168 8.107644 2.471410 -95.742180 -10.761717 -9.562370 2.000000 -2.000000 0.000000 -66.367188 19.550783 -73.375633 -77.460861 -0.594552 -2.700214 -58.356342 35.060326 -59.775330 -2.000000 2.000000 0.000000 43.925785 -9.365234 -72.130035 86.383591 0.081650 -2.964762 9.226756 -43.901436 1.104071 -95.835953 45.267345 23.246889 48.347256 -3.734074 -3.737122 3.990470 -7.862009 -18.607962 -102.040550 -41.063435 -32.545135 69.686203 1.025338 4.243403 -18.225874 2.448989 -0.828022 
-2.882534 39.704544 67.827438 -4.785156 61.435551 -92.597656 57.409801 -7.091755 1.524577 -27.871094 13.251953 -0.771484 51.063168 8.107644 2.471410 -96.210930 -11.035155 -9.454995 2.000000 -2.000000 0.000000 -66.347656 20.078125 -73.388672 -77.627151 -0.585368 -2.710627 -58.747456 34.836090 -60.406712 -2.000000 2.000000 0.000000 42.626953 -9.960938 -68.732162 86.374916 -0.091581 -3.013896 8.490889 -43.883808 1.858661 -96.706421 45.406219 22.629227 48.696560 -3.411985 -3.928195 4.314326 -8.356610 -19.014778 -102.526344 -41.408855 -32.941059 70.925545 0.917980 4.264436 -19.259750 2.445829 -1.378035 
-2.862954 39.476086 67.546257 -4.472656 61.777340 -91.953125 57.744797 -7.017532 1.687924 -28.232424 13.085938 -0.869141 51.063168 8.107644 2.471410 -96.787109 -11.113279 -9.630789 2.000000 -2.000000 0.000000 -66.259766 20.742188 -73.457031 -77.627151 -0.585368 -2.710627 -58.851685 34.479477 -60.323910 -2.000000 2.000000 0.000000 41.533207 -9.023438 -65.675362 86.369186 -0.132684 -2.810931 8.607553 -44.031513 1.870609 -97.671715 45.745884 21.869267 49.075970 -3.558391 -3.877001 4.251832 -8.749703 -19.049990 -103.241867 -41.649616 -32.864853 72.145233 0.801259 4.275433 -20.165308 2.295887 -1.607928 
-2.837947 39.263371 67.275940 -4.121093 61.982422 -91.456223 58.236584 -6.968430 1.863898 -28.583984 12.919922 -1.123047 51.063168 8.107644 2.471410 -97.246094 -11.376951 -9.531251 2.000000 -2.000000 0.000000 -65.947266 21.308596 -73.027344 -77.803200 -0.595683 -2.719807 -58.258572 33.704918 -60.094955 -2.000000 2.000000 0.000000 40.957027 -5.400391 -62.177731 86.383591 0.081650 -2.964762 8.064535 -44.045555 1.983011 -98.531235 46.078220 21.444448 49.374134 -3.353278 -3.976167 4.569495 -8.830338 -19.888470 -104.070244 -41.957848 -32.877361 73.200150 0.751964 4.282521 -21.178133 2.277667 -1.939664 
-2.815152 39.019154 67.004684 -3.769531 62.158203 -91.005859 58.571411 -6.894189 2.028405 -28.779299 12.568360 -1.181641 51.063168 8.107644 2.471410 -97.714844 -11.630858 -9.589845 2.000000 -2.000000 0.000000 -65.722656 21.806641 -72.828400 -77.811134 -0.474733 -2.658294 -57.985424 33.123253 -59.768436 -2.000000 2.000000 0.000000 40.849609 -2.382813 -59.199627 86.383591 0.081650 -2.964762 8.355179 -44.234024 1.423386 -99.627640 46.121208 20.450523 49.758144 -3.333690 -3.960001 4.491656 -9.346682 -19.721655 -104.560242 -42.147629 -32.955330 74.262009 0.810591 4.435487 -22.118380 1.788800 -1.969601 
